# xmcd
#
# Track frame offsets: 
#        150
#        12341
#        25431
#        38542
#        50782
#        61712
#        75425
#        88334
#        103799
#        115644
#        126177
#        140067
#        151674
#        163014
#
# Disc length: 2323 seconds
#
# Revision: 4
# Processed by: cddbd v1.5.2PL0 Copyright (c) Steve Scherf et al.
# Submitted via: ExactAudioCopy v1.0b3
#
DISCID=af09110e
DTITLE=The Legendary Blues Singers - Play Me The Blues...
DYEAR=2001
DGENRE=Blues
TTITLE0=Elmore James - Mean Mistreatin' Mama
TTITLE1=Elmore James - Dust My Broom
TTITLE2=Elmore James - Standing At The Crossroads
TTITLE3=Elmore James - The Sky Is Crying
TTITLE4=Elmore James - Coming Home
TTITLE5=Elmore James - Hand In Hand
TTITLE6=Elmore James - Held My Baby Last Night
TTITLE7=Elmore James - I Believe
TTITLE8=Elmore James - Pickin' The Blues
TTITLE9=Elmore James - Done Somebody Wrong
TTITLE10=Elmore James - It Hurts Me Too
TTITLE11=Elmore James - Fine Little Mama
TTITLE12=Elmore James - Rollin' And Tumblin'
TTITLE13=Elmore James - Look On Yonder Wall
EXTD=
EXTT0=
EXTT1=
EXTT2=
EXTT3=
EXTT4=
EXTT5=
EXTT6=
EXTT7=
EXTT8=
EXTT9=
EXTT10=
EXTT11=
EXTT12=
EXTT13=
PLAYORDER=
